<?xml version="1.0" standalone="no"?>
<!DOCTYPE svg PUBLIC "-//W3C//DTD SVG 20010904//EN"
 "http://www.w3.org/TR/2001/REC-SVG-20010904/DTD/svg10.dtd">
<svg version="1.0" xmlns="http://www.w3.org/2000/svg"
 width="800.000000pt" height="600.000000pt" viewBox="0 0 800.000000 600.000000"
 preserveAspectRatio="xMidYMid meet">
<metadata>
Created by potrace 1.15, written by Peter Selinger 2001-2017
</metadata>
<g transform="translate(0.000000,600.000000) scale(0.100000,-0.100000)"
fill="#000000" stroke="none">
<path d="M0 5380 c0 -584 1 -620 18 -620 9 0 127 16 262 35 266 39 347 50 458
65 40 5 86 17 103 25 24 13 49 15 127 9 74 -5 112 -2 158 10 34 9 84 16 110
16 27 0 78 7 114 16 35 8 75 12 90 9 14 -3 88 1 165 9 367 39 618 48 870 32
72 -5 206 -5 298 -1 152 6 171 9 193 29 l24 21 -30 90 c-74 218 -89 437 -50
705 11 74 20 143 20 153 0 16 -76 17 -1465 17 l-1465 0 0 -620z m2183 396 c10
3 17 1 17 -5 0 -6 12 -11 26 -11 23 0 25 -3 20 -27 -6 -35 -20 -320 -18 -393
0 -30 12 -103 26 -162 14 -59 23 -113 20 -121 -4 -12 -43 -14 -222 -12 -303 3
-294 3 -286 18 6 9 5 9 -8 0 -8 -7 -17 -10 -21 -7 -3 3 -25 8 -48 10 -53 7
-56 9 -37 31 14 15 14 20 2 31 -7 6 -22 12 -34 12 -11 0 -20 5 -20 10 0 6 8
10 18 10 24 0 45 51 34 81 -25 69 -17 282 12 312 7 7 16 30 21 51 10 39 35 62
35 32 0 -24 19 -19 30 7 5 13 9 16 10 7 0 -10 3 -11 8 -4 12 17 39 23 51 11 8
-8 11 -7 11 4 0 15 22 21 79 22 20 0 42 8 53 19 11 11 25 17 33 15 9 -4 11 1
8 14 -4 14 -1 18 9 14 21 -8 107 13 125 31 11 11 18 12 23 4 4 -6 14 -8 23 -4z"/>
<path d="M3700 5973 c1 -16 7 -39 15 -53 19 -33 19 -81 0 -106 -8 -10 -15 -36
-15 -56 0 -56 70 -117 152 -131 36 -5 42 12 27 81 -8 39 -8 57 0 65 8 8 11 8
11 -1 0 -7 9 -12 19 -12 12 0 30 -18 50 -52 16 -29 50 -75 75 -102 38 -40 46
-56 46 -86 0 -37 21 -92 34 -90 4 0 19 -6 34 -13 15 -8 41 -19 57 -23 22 -7
37 -23 55 -57 l25 -48 -22 -19 c-29 -23 -30 -68 -3 -112 11 -18 20 -40 20 -49
0 -8 9 -34 20 -57 16 -33 28 -43 60 -52 43 -11 167 -4 187 12 13 10 8 77 -7
92 -15 15 -12 82 5 96 15 12 21 4 16 -23 -1 -5 3 -6 9 -2 5 3 9 23 8 45 -2 51
47 105 103 114 22 3 39 11 39 16 0 6 8 10 18 10 11 0 27 9 37 20 10 11 26 22
35 25 10 3 20 15 23 25 8 30 22 25 81 -32 59 -57 79 -73 114 -88 24 -10 30
-30 10 -30 -9 0 -8 -3 2 -10 13 -8 13 -11 -2 -22 -9 -7 -19 -24 -23 -37 -6
-20 -4 -23 10 -18 9 4 26 7 38 7 18 0 19 2 7 10 -13 8 -12 11 4 23 16 12 17
16 5 38 -8 13 -18 27 -23 31 -6 4 -6 16 1 30 11 23 11 23 26 -11 14 -34 15
-34 23 -10 4 13 8 28 9 34 0 16 34 18 52 3 12 -9 15 -9 9 -1 -5 9 0 12 18 11
15 -1 26 -6 26 -10 0 -4 19 -8 43 -8 34 0 49 7 81 35 22 19 43 35 46 35 4 0 7
6 8 13 5 45 20 106 31 126 9 15 12 43 8 75 -2 28 -2 43 0 33 2 -9 9 -15 14
-12 5 4 9 -5 9 -18 0 -13 9 -32 20 -42 11 -10 20 -25 20 -33 0 -9 3 -12 7 -9
3 4 12 -1 18 -10 11 -15 15 -16 31 -3 13 12 18 12 21 3 8 -23 23 -14 24 15 2
27 2 27 6 2 3 -14 11 -29 19 -33 8 -4 14 -17 14 -29 0 -16 5 -19 25 -16 29 6
33 -6 8 -21 -15 -8 -14 -10 12 -16 49 -11 95 -35 108 -56 6 -10 17 -19 24 -19
6 0 14 -6 16 -12 3 -7 6 3 8 22 1 25 3 29 6 12 3 -14 11 -22 21 -21 9 1 26 0
37 0 18 -2 17 -4 -5 -12 l-25 -10 28 -17 c25 -15 39 -62 19 -62 -7 0 -30 -37
-37 -60 -7 -23 -22 -50 -43 -77 -32 -43 -81 -52 -317 -58 -232 -6 -374 -13
-385 -20 -5 -3 -10 0 -12 6 -5 14 -88 25 -97 11 -8 -13 -100 -62 -117 -62 -8
0 -14 -4 -14 -8 0 -18 87 -34 303 -58 219 -24 337 -24 396 -2 18 7 29 4 45
-11 30 -27 84 -48 147 -56 30 -3 119 -15 199 -25 80 -11 210 -24 289 -30 79
-6 199 -21 265 -35 206 -41 285 -49 330 -34 l39 14 2 110 c2 88 -1 120 -16
160 -26 68 -24 86 12 121 24 23 29 35 25 57 -3 15 -9 40 -12 56 -5 24 -1 35
19 55 44 44 62 31 76 -54 13 -79 35 -110 92 -131 57 -22 76 -12 84 45 9 57 -8
104 -57 159 -21 23 -38 47 -38 53 0 6 16 26 36 44 34 30 36 36 32 80 -4 37
-14 59 -43 95 -21 25 -53 74 -71 108 -19 38 -37 61 -45 58 -67 -17 -85 -13
-111 22 -21 27 -36 35 -69 40 -56 7 -83 35 -75 75 17 74 104 101 201 62 30
-12 55 -27 55 -32 0 -6 14 -8 35 -4 19 3 50 9 69 12 32 6 38 2 82 -45 26 -28
56 -54 67 -57 11 -3 80 -46 152 -95 124 -83 136 -93 178 -161 65 -106 66 -109
78 -195 14 -106 87 -288 130 -325 60 -51 68 -73 62 -163 -5 -67 -1 -105 21
-206 15 -68 29 -134 32 -146 4 -21 49 -53 74 -53 7 0 10 233 10 750 l0 750
-2150 0 -2150 0 0 -27z m1445 -286 c21 5 25 1 31 -33 3 -22 11 -44 16 -51 6
-7 3 -23 -7 -43 -9 -18 -14 -34 -11 -38 8 -7 -24 -42 -38 -42 -26 1 -74 120
-48 120 5 0 9 14 10 30 1 36 14 79 19 64 2 -6 14 -9 28 -7z m1577 -439 c0 -42
-24 -108 -40 -108 -5 0 -18 -10 -31 -21 -17 -16 -26 -18 -34 -10 -17 17 -16
119 1 133 16 14 96 55 100 53 1 -1 3 -22 4 -47z"/>
<path d="M3430 5749 c-10 -22 -10 -33 -1 -42 6 -6 11 -20 11 -31 1 -33 36
-130 61 -167 12 -19 48 -56 81 -83 32 -26 67 -65 77 -85 29 -56 66 -91 98 -91
30 0 133 -48 130 -60 -1 -4 15 -24 37 -44 30 -29 41 -34 52 -25 8 6 12 15 9
19 -3 5 -1 10 5 12 5 1 13 24 16 50 5 37 2 55 -15 88 -11 22 -25 60 -31 83
-24 111 -61 151 -130 143 -21 -3 -48 -10 -59 -15 -29 -16 -73 -13 -101 6 -71
47 -127 126 -115 162 7 23 -69 111 -95 111 -10 0 -23 -13 -30 -31z"/>
<path d="M7143 4898 c-6 -7 -18 -38 -28 -69 -16 -52 -16 -59 -1 -88 13 -25 23
-31 49 -31 17 0 40 7 51 15 21 16 20 24 -15 123 -21 61 -37 74 -56 50z"/>
<path d="M5705 3858 c-27 -5 -61 -10 -75 -12 -14 -1 -35 -8 -48 -15 -12 -6
-32 -11 -45 -10 -48 4 -77 -1 -77 -15 0 -7 -7 -19 -15 -26 -8 -7 -15 -21 -15
-32 0 -14 -5 -18 -15 -14 -10 3 -15 -1 -15 -13 0 -10 -7 -21 -15 -25 -8 -3
-14 -11 -13 -17 4 -18 -51 -30 -106 -22 -36 4 -47 3 -42 -6 4 -6 12 -8 18 -5
7 4 8 2 4 -4 -10 -16 -43 -15 -49 1 -2 7 -4 6 -3 -3 1 -14 70 -45 118 -53 24
-4 44 -11 88 -29 14 -6 48 -16 75 -23 77 -20 199 -58 205 -65 3 -3 34 -12 70
-19 36 -7 70 -16 75 -21 6 -5 27 -11 48 -15 20 -4 37 -11 37 -15 0 -4 13 -10
29 -13 37 -8 201 -72 249 -97 20 -11 42 -20 49 -20 16 0 71 -31 101 -57 14
-13 31 -23 38 -23 7 0 19 -3 28 -6 11 -4 16 -1 16 10 0 9 4 16 9 16 5 0 7 -8
4 -19 -4 -15 8 -23 67 -45 39 -14 77 -26 85 -26 7 0 15 -7 19 -15 3 -8 10 -15
16 -15 11 0 87 -53 120 -83 15 -14 44 -28 69 -33 8 -1 17 -7 20 -13 4 -6 23
-17 43 -25 20 -9 39 -20 43 -26 3 -5 16 -10 28 -10 18 0 19 -2 7 -10 -12 -8
-11 -10 7 -10 13 0 28 -9 35 -20 7 -11 22 -20 33 -21 20 0 20 0 0 -9 -18 -7
-17 -9 15 -23 19 -9 50 -29 69 -46 19 -17 39 -31 45 -31 6 0 3 -7 -8 -15 -23
-17 -14 -45 14 -45 11 0 20 -7 20 -15 0 -8 -7 -15 -15 -15 -8 0 -15 -4 -15 -9
0 -12 29 -41 41 -41 5 0 12 -12 15 -27 4 -16 12 -31 18 -35 7 -5 7 -8 1 -8
-11 0 -10 -51 1 -132 5 -39 4 -48 -8 -48 -25 0 -42 -30 -43 -76 -1 -32 -7 -48
-26 -63 -13 -11 -30 -18 -38 -16 -9 4 -11 0 -7 -10 3 -9 -3 -20 -14 -27 -11
-7 -20 -16 -20 -20 0 -14 30 -8 36 6 4 10 13 12 31 7 34 -9 133 23 268 87 196
94 325 195 405 318 72 110 81 168 52 317 -5 26 -5 47 0 47 24 0 -6 84 -56 154
-48 68 -140 161 -216 218 -237 178 -710 375 -1129 469 -103 23 -393 78 -447
84 -181 21 -217 24 -225 19 -6 -3 -15 -2 -22 3 -7 6 -33 6 -62 1z"/>
<path d="M4715 3203 c-16 -3 -43 -14 -60 -26 -16 -12 -39 -22 -50 -22 -13 0
-20 -7 -21 -20 0 -11 -9 -40 -21 -65 -11 -25 -24 -60 -27 -77 -5 -21 -12 -30
-21 -27 -7 3 -16 0 -20 -5 -3 -6 -11 -8 -17 -5 -6 4 -8 -2 -3 -17 5 -19 4 -21
-4 -9 -9 13 -12 13 -20 1 -5 -8 -16 -11 -26 -7 -14 5 -15 9 -5 21 7 8 16 13
20 10 5 -3 11 -1 15 5 3 5 -1 10 -9 10 -8 0 -17 -4 -20 -9 -6 -9 -66 15 -66
25 0 3 5 2 10 -1 6 -3 10 -2 10 3 0 20 -30 21 -40 2 -6 -11 -17 -17 -24 -14
-8 3 -19 -4 -26 -16 -8 -15 -18 -20 -33 -16 -12 2 -31 -2 -41 -9 -10 -8 -23
-12 -27 -9 -13 8 -11 -10 4 -25 7 -9 8 -12 0 -7 -15 8 -44 -3 -37 -15 7 -12
-18 -37 -34 -31 -6 2 -12 -1 -12 -7 0 -6 3 -10 8 -10 18 3 32 -2 32 -11 0 -6
-8 -10 -17 -8 -10 2 -18 -2 -18 -9 0 -6 -3 -15 -7 -18 -4 -4 6 -27 22 -51 35
-51 36 -54 10 -54 -26 0 -26 -16 0 -30 11 -6 18 -15 15 -21 -8 -11 -95 49 -95
66 0 7 9 22 19 34 12 14 17 30 13 44 -4 14 -7 17 -10 7 -11 -41 -11 -41 -32
-30 -23 12 -18 32 5 23 8 -3 15 -1 15 5 0 16 -38 21 -44 6 -7 -17 -35 -18 -41
-1 -3 6 -16 13 -29 13 -21 2 -24 -3 -24 -28 2 -44 -19 -59 -41 -29 -12 15 -20
20 -24 12 -4 -8 -5 -7 -3 1 2 7 0 25 -5 40 -11 40 19 48 34 8 6 -16 15 -30 20
-30 5 0 7 6 4 14 -3 8 -1 17 6 20 8 3 3 12 -13 25 -19 16 -21 21 -9 21 16 0
34 28 25 37 -2 2 -23 -5 -45 -15 -23 -11 -41 -16 -41 -11 0 5 5 9 12 9 9 0 9
3 1 11 -29 29 -52 -19 -26 -53 22 -29 24 -38 8 -38 -9 0 -13 4 -10 10 3 5 0 7
-7 5 -8 -3 -22 1 -33 9 -11 9 -14 16 -7 16 18 0 15 20 -3 20 -20 0 -78 -30
-72 -37 3 -2 7 -3 9 -1 5 4 68 -67 68 -76 0 -4 -5 -4 -11 -1 -6 4 -9 0 -7 -11
2 -14 -4 -20 -24 -22 -16 -2 -28 1 -28 5 0 14 -39 53 -52 53 -7 0 -3 -6 8 -14
10 -8 15 -18 11 -22 -4 -5 7 -16 25 -26 18 -9 27 -17 20 -18 -23 0 -69 38 -81
69 -7 16 -21 31 -32 34 -15 4 -19 12 -15 31 4 20 1 26 -14 26 -10 0 -22 5 -25
10 -4 6 -12 10 -18 8 -7 -1 -35 2 -63 6 -42 6 -65 2 -145 -24 -106 -35 -199
-80 -199 -96 0 -21 75 -74 105 -74 8 0 15 -4 15 -10 0 -13 49 -37 91 -44 43
-7 246 -20 274 -18 11 1 49 3 85 5 36 1 73 7 83 11 9 5 17 4 17 -1 0 -10 -69
-43 -89 -43 -8 0 -6 -8 5 -25 17 -25 12 -61 -6 -50 -5 3 -10 1 -10 -4 0 -6
-15 -11 -34 -11 -19 0 -38 -5 -41 -10 -4 -6 -10 -8 -15 -5 -4 2 -10 -6 -12
-20 -3 -13 -2 -22 2 -20 5 3 10 -2 14 -10 3 -8 18 -15 33 -15 34 0 46 -8 62
-37 6 -13 19 -23 27 -23 19 0 122 -48 129 -61 21 -33 144 -48 153 -20 2 6 10
18 18 25 20 21 18 23 -21 30 -19 4 -35 12 -35 19 1 42 69 67 123 46 23 -10 31
-9 46 5 25 22 107 18 145 -8 31 -20 50 -16 65 12 9 18 6 19 -43 19 -63 0 -81
8 -63 28 8 9 16 10 25 3 9 -8 12 -2 12 26 0 30 4 36 21 36 25 0 59 17 59 30 0
6 -9 10 -20 10 -24 0 -37 27 -21 43 18 18 13 29 -11 25 -15 -2 -24 3 -26 15
-2 9 2 17 8 17 14 0 67 -35 92 -61 9 -9 23 -19 30 -22 7 -2 9 -8 5 -13 -4 -5
-12 -3 -16 5 -6 10 -10 9 -15 -4 -9 -24 -8 -25 14 -25 20 0 25 -13 21 -57 -2
-26 37 -43 50 -22 13 20 11 29 -6 29 -8 0 -15 5 -15 12 0 6 -8 20 -17 30 -12
13 -13 22 -6 29 8 8 15 5 25 -10 8 -11 28 -27 44 -36 17 -9 22 -15 13 -15 -11
0 -19 -12 -23 -37 -13 -71 -13 -71 -51 -59 -29 9 -33 14 -28 35 4 17 2 22 -8
19 -20 -7 -24 -47 -5 -54 22 -9 21 -37 -1 -30 -22 7 -114 -16 -114 -28 0 -5
10 -14 23 -20 17 -9 23 -20 23 -46 0 -27 5 -35 20 -38 11 -2 34 -10 50 -16 17
-7 48 -19 70 -26 22 -7 48 -19 57 -27 32 -28 498 15 519 49 5 7 6 20 3 28 -16
38 -16 60 -1 60 25 0 32 22 12 36 -10 8 -16 21 -13 32 3 12 -2 23 -15 31 -19
12 -19 11 -12 -36 l7 -48 -21 19 c-11 10 -32 19 -46 19 -20 0 -25 5 -25 23 0
29 -26 32 -35 4 -3 -11 -12 -20 -18 -20 -7 0 -6 -4 3 -10 8 -5 11 -12 7 -16
-10 -11 -23 6 -31 40 -6 23 -4 27 8 23 22 -8 27 3 11 27 -9 15 -11 35 -5 71 7
48 5 74 -9 76 -3 0 -37 2 -74 3 -82 3 -101 16 -66 45 l24 20 -27 1 c-34 0 -35
9 -3 44 24 26 52 36 39 14 -5 -9 -2 -9 9 1 15 11 17 11 17 -2 0 -8 7 -18 16
-21 10 -4 13 -13 9 -26 -5 -14 -2 -20 9 -20 22 0 28 -1 54 -11 18 -7 22 -5 22
11 0 14 7 20 21 20 15 0 19 5 15 15 -4 10 2 19 17 24 13 5 29 16 36 25 18 21
28 20 49 -4 21 -25 24 -60 6 -60 -8 0 -14 -5 -14 -11 0 -5 5 -7 11 -3 8 4 8 1
1 -13 -7 -12 -7 -25 -1 -34 5 -7 9 -20 9 -26 0 -22 -19 -14 -35 15 -9 15 -14
19 -11 10 3 -12 0 -18 -9 -18 -8 0 -15 -5 -15 -11 0 -6 7 -8 15 -5 12 4 14 2
6 -11 -10 -18 5 -63 21 -63 5 0 16 -7 25 -15 8 -9 18 -13 22 -9 3 4 0 9 -7 11
-10 4 -9 8 4 18 10 7 17 25 17 44 0 26 4 31 26 33 45 2 49 3 57 11 4 4 -7 10
-24 13 -37 7 -54 42 -28 56 9 5 16 16 16 23 0 8 9 15 20 15 15 0 20 -7 20 -26
0 -22 4 -25 28 -23 15 2 33 0 40 -5 9 -5 15 -1 19 13 7 29 27 21 28 -10 2 -34
13 -49 30 -43 7 3 22 1 33 -5 17 -9 20 -7 24 20 4 26 2 30 -14 26 -23 -7 -23
-2 3 22 14 13 20 27 16 40 -4 16 0 21 15 21 10 0 16 5 13 10 -4 6 -10 8 -14 5
-10 -5 -71 51 -71 65 0 6 -5 10 -11 10 -7 0 -8 7 -4 18 4 9 8 23 8 30 0 6 4
12 9 12 4 0 8 9 8 20 0 13 -9 22 -25 26 -14 3 -22 11 -18 17 4 7 0 8 -11 4
-10 -4 -20 -7 -22 -7 -2 0 -4 -7 -4 -15 0 -8 -7 -15 -16 -15 -8 0 -12 -4 -9
-10 7 -12 -15 -13 -33 -1 -11 6 -11 17 -1 57 6 27 18 59 25 71 11 18 11 22 -1
27 -8 3 -15 12 -15 20 0 8 -60 43 -142 84 -137 68 -146 71 -228 76 -47 2 -98
2 -115 -1z m22 -50 c-4 -3 -2 -13 5 -20 9 -11 9 -17 -3 -24 -12 -7 -11 -9 2
-9 11 0 17 -8 17 -22 0 -13 4 -39 10 -58 7 -25 11 -31 16 -19 4 8 2 28 -3 42
-6 15 -9 27 -6 27 6 0 45 -91 45 -106 0 -8 5 -14 10 -14 7 0 7 -7 0 -21 -7
-11 -9 -23 -6 -27 3 -3 6 1 7 9 0 8 4 4 9 -9 5 -12 17 -25 25 -29 25 -9 65 17
62 41 -1 15 4 22 21 24 17 3 25 -3 33 -27 6 -16 18 -32 27 -34 12 -2 4 -10
-23 -23 -22 -10 -41 -22 -43 -26 -6 -13 -23 -9 -52 12 -26 19 -30 19 -38 4
-12 -21 -33 -9 -25 13 4 11 3 14 -6 9 -27 -17 -118 66 -144 133 -26 65 -22
115 11 140 24 18 65 30 49 14z"/>
<path d="M3813 3193 c-7 -3 -13 -9 -13 -15 0 -5 -9 -21 -20 -35 -27 -35 -26
-53 4 -47 14 2 28 0 31 -6 3 -5 -3 -10 -14 -10 -12 0 -21 -7 -21 -15 0 -20
-13 -19 -41 4 -17 14 -29 17 -41 10 -31 -17 -20 -38 25 -49 23 -6 58 -15 77
-21 19 -5 53 -9 74 -9 22 0 55 -6 74 -12 29 -11 35 -10 47 5 6 9 16 17 22 17
5 0 14 5 21 12 9 9 6 18 -16 38 -15 14 -37 38 -49 55 l-21 30 -7 -28 c-5 -19
-2 -33 9 -46 21 -23 20 -38 -4 -51 -25 -13 -70 -3 -70 17 0 10 -6 12 -22 8
-20 -7 -21 -5 -15 49 3 31 2 56 -3 56 -5 0 -10 11 -12 23 -2 14 -8 22 -15 20z"/>
<path d="M5620 2735 c0 -12 -6 -15 -20 -10 -14 5 -18 3 -15 -8 4 -9 -1 -13
-17 -13 -14 1 -24 -6 -26 -18 -4 -20 16 -38 34 -32 6 3 11 -8 12 -25 1 -31
-21 -41 -32 -14 -3 8 -13 15 -22 15 -10 0 -14 -5 -11 -14 4 -10 1 -13 -7 -10
-7 3 -16 -2 -19 -10 -7 -18 14 -25 59 -22 44 4 55 13 48 44 -5 26 -5 26 10 8
9 -11 16 -14 16 -7 0 7 5 9 10 6 6 -3 10 1 10 9 0 9 5 16 11 16 5 0 7 -4 4
-10 -3 -5 -2 -10 4 -10 5 0 13 5 17 11 3 6 14 9 24 6 9 -2 28 2 41 10 13 8 16
12 7 9 -10 -3 -23 1 -31 8 -7 7 -23 17 -35 20 -12 4 -22 11 -22 16 0 4 -11 15
-25 24 -23 15 -25 15 -25 1z"/>
<path d="M5355 2422 c-10 -2 -31 -17 -46 -33 -30 -32 -60 -37 -79 -14 -19 23
-46 18 -80 -15 -17 -16 -35 -30 -40 -30 -14 0 -12 -44 2 -58 10 -10 10 -17 0
-32 -17 -27 -16 -30 13 -30 25 0 105 28 105 37 0 3 -10 13 -22 24 -22 18 -22
18 -2 19 11 0 25 5 31 11 13 13 33 4 33 -17 0 -8 6 -14 14 -14 8 0 22 -8 32
-17 12 -12 35 -17 84 -19 105 -2 128 30 49 70 -23 11 -30 12 -39 1 -8 -10 -16
-10 -34 -2 -25 12 -25 34 2 75 11 17 18 20 28 11 7 -6 18 -8 24 -4 22 14 -41
44 -75 37z"/>
<path d="M7940 1660 c-25 -8 -80 -20 -217 -45 -40 -8 -81 -19 -92 -24 -11 -6
-37 -11 -58 -11 -21 0 -56 -5 -78 -11 -22 -5 -51 -11 -65 -14 -14 -2 -63 -13
-110 -24 -87 -21 -230 -42 -405 -61 -55 -6 -154 -19 -220 -30 -294 -48 -846
-116 -1010 -124 -584 -32 -795 -38 -1365 -40 -753 -2 -1019 4 -1525 34 -88 5
-209 12 -270 16 -60 3 -128 8 -150 10 -38 4 -112 10 -405 34 -342 28 -1067
120 -1450 185 -208 35 -448 79 -497 92 l-23 5 0 -826 0 -826 4000 0 4000 0 0
835 c0 789 -1 835 -17 834 -10 -1 -29 -5 -43 -9z"/>
</g>
</svg>
