<?xml version="1.0" standalone="no"?>
<!DOCTYPE svg PUBLIC "-//W3C//DTD SVG 20010904//EN"
 "http://www.w3.org/TR/2001/REC-SVG-20010904/DTD/svg10.dtd">
<svg version="1.0" xmlns="http://www.w3.org/2000/svg"
 width="85.000000pt" height="83.000000pt" viewBox="0 0 85.000000 83.000000"
 preserveAspectRatio="xMidYMid meet">
<metadata>
Created by potrace 1.15, written by Peter Selinger 2001-2017
</metadata>
<g transform="translate(0.000000,83.000000) scale(0.100000,-0.100000)"
fill="#000000" stroke="none">
<path d="M240 785 l0 -45 185 0 185 0 0 45 0 45 -185 0 -185 0 0 -45z"/>
<path d="M0 335 l0 -335 45 0 45 0 0 290 0 290 335 0 335 0 0 -290 0 -290 45
0 45 0 0 335 0 335 -425 0 -425 0 0 -335z"/>
<path d="M240 410 l0 -50 185 0 185 0 0 50 0 50 -185 0 -185 0 0 -50z"/>
<path d="M240 240 l0 -50 185 0 185 0 0 50 0 50 -185 0 -185 0 0 -50z"/>
</g>
</svg>
